<?xml version="1.0" encoding="utf-8"?>
<!-- Generator: Adobe Illustrator 16.0.4, SVG Export Plug-In . SVG Version: 6.00 Build 0)  -->
<!DOCTYPE svg PUBLIC "-//W3C//DTD SVG 1.1//EN" "http://www.w3.org/Graphics/SVG/1.1/DTD/svg11.dtd">
<svg version="1.1" id="Layer_1" xmlns="http://www.w3.org/2000/svg" xmlns:xlink="http://www.w3.org/1999/xlink" x="0px" y="0px"
	 width="708.66px" height="113.39px" viewBox="0 0 708.66 113.39" enable-background="new 0 0 708.66 113.39" xml:space="preserve">
<g transform="matrix(1,0,0,1,-8.50389,28.9)">
	<rect x="9.103" y="63.032" fill="#575756" width="292.604" height="1.959"/>
</g>
<g transform="matrix(1,0,0,1,-8.50389,28.9)">
	<rect x="425.161" y="63.032" fill="#575756" width="292.603" height="1.959"/>
</g>
<path transform="matrix(1,0,0,1,194.462,156.428)" fill="#575756" d="M131.041-43.605v-17.25h11.121c3.698,0,6.731-1.113,9.104-3.34
	c2.372-2.226,3.557-5.194,3.557-8.914c0-3.694-1.186-6.644-3.557-8.839c-2.373-2.2-5.406-3.299-9.104-3.299h-13.677v41.642H131.041z
	 M131.041-82.863h11.005c3.078,0,5.532,0.854,7.362,2.567c1.829,1.714,2.744,4.107,2.744,7.187c0,3.082-0.915,5.494-2.744,7.247
	c-1.83,1.751-4.284,2.629-7.362,2.629h-11.005V-82.863z M173.175-43.605v-18.438h11.967l9.872,18.438h3.021l-9.324-17.307
	c-0.348-0.679-0.668-1.171-0.955-1.481v-0.113c2.476-0.544,4.487-1.861,6.023-3.952c1.539-2.088,2.309-4.607,2.309-7.547
	c0-2.323-0.519-4.347-1.551-6.072c-1.039-1.722-2.446-3.03-4.228-3.917c-1.646-0.835-4.144-1.252-7.491-1.252h-12.195v41.642
	H173.175z M173.175-82.863h9.526c2.613,0,4.561,0.28,5.835,0.842c1.511,0.676,2.701,1.722,3.572,3.133
	c0.874,1.415,1.307,3.041,1.307,4.883c0,2.846-0.812,5.15-2.438,6.924c-1.628,1.771-3.794,2.657-6.505,2.657h-11.297V-82.863z"/>
<path fill="#575756" d="M4.14,40.376V21.338H29.69v19.038h2.472V0.111H29.69v18.925H4.14V0.111H1.667v40.265H4.14z M56.396,40.376
	l5.167-13.929h17.099l5.225,13.929h2.638L71.473,0.111h-2.667L53.754,40.376H56.396z M68.582,7.833
	c0.429-1.142,0.926-2.752,1.487-4.83h0.141l0.225,0.814c0.149,0.562,0.351,1.246,0.604,2.049c0.253,0.805,0.472,1.461,0.66,1.967
	l6.095,16.313H62.432L68.582,7.833z M109.465,40.376l2.47-30.718c0.111-1.311,0.168-3.126,0.168-5.447h0.139l0.337,0.954
	c0.225,0.617,0.509,1.38,0.855,2.288c0.348,0.909,0.651,1.643,0.913,2.205l10.748,22.967h2.524l10.804-22.967
	c0.617-1.311,1.309-3.088,2.077-5.335h0.111v0.899c0,0.599,0.014,1.344,0.041,2.233c0.03,0.889,0.071,1.624,0.127,2.206
	l2.521,30.716h2.47l-3.23-40.265h-2.415L128.39,25.437c-0.616,1.31-1.273,2.818-1.964,4.521h-0.114l-1.937-4.521L112.638,0.111
	h-2.415l-3.23,40.265H109.465z M173.852,0.111h-2.472v40.265h2.472V0.111z M222.315,40.376v-2.304h-19.207V0.111h-2.47v40.265
	H222.315z M249.47,2.413v37.963h2.472V2.413h15.021V0.109h-32.516v2.304H249.47z M285.564,28.246
	c1.076,2.621,2.526,4.868,4.353,6.739c1.825,1.871,3.992,3.355,6.5,4.45c2.507,1.095,5.138,1.642,7.89,1.642
	c2.752,0,5.382-0.546,7.89-1.642c2.509-1.095,4.676-2.579,6.501-4.45c1.825-1.872,3.275-4.119,4.352-6.739
	c1.078-2.62,1.615-5.382,1.615-8.283c0-2.846-0.537-5.542-1.615-8.088c-1.077-2.544-2.526-4.72-4.352-6.528
	c-1.826-1.806-3.992-3.244-6.501-4.31c-2.507-1.067-5.137-1.6-7.89-1.6c-2.751,0-5.382,0.533-7.89,1.6
	c-2.508,1.066-4.675,2.503-6.5,4.31c-1.826,1.808-3.277,3.984-4.353,6.528c-1.078,2.546-1.614,5.242-1.614,8.088
	C283.951,22.863,284.487,25.625,285.564,28.246 M288.92,10.726c1.59-2.79,3.743-4.976,6.458-6.558
	c2.714-1.581,5.691-2.373,8.929-2.373s6.215,0.792,8.93,2.373c2.712,1.582,4.868,3.768,6.458,6.558
	c1.59,2.789,2.388,5.868,2.388,9.237c0,3.462-0.797,6.636-2.388,9.519c-1.59,2.883-3.745,5.144-6.458,6.781
	c-2.715,1.638-5.692,2.456-8.93,2.456s-6.215-0.818-8.929-2.456c-2.715-1.638-4.868-3.898-6.458-6.781
	c-1.591-2.883-2.386-6.056-2.386-9.519C286.534,16.594,287.329,13.514,288.92,10.726 M351.089,40.376V8.815
	c0-1.348-0.095-3.042-0.281-5.083h0.112l0.532,0.87c0.357,0.562,0.805,1.269,1.347,2.122c0.544,0.852,1.013,1.548,1.405,2.091
	l22.942,31.561h2.302V0.111h-2.47v31.587c0,1.347,0.092,3.034,0.279,5.056h-0.111l-0.534-0.872
	c-0.356-0.561-0.805-1.263-1.348-2.105s-1.011-1.534-1.406-2.079L350.921,0.111h-2.304v40.265H351.089z M459.858,41.077h-4.285
	l-9.164-32.664c-0.045-0.159-0.089-0.316-0.129-0.466c-0.309,1.151-0.609,2.176-0.913,3.092l-8.164,30.038h-4.352L422.154,0.403
	h4.229l8.631,33.783l9.183-33.783h4.121l9.425,33.593c0.1-0.408,0.197-0.805,0.293-1.193l8.569-32.4h4.229L459.858,41.077z
	 M496.1,23.69h12.464l-5.479-14.683c-0.183-0.501-0.403-1.149-0.652-1.945c-0.023-0.081-0.049-0.159-0.075-0.235
	c-0.258,0.855-0.503,1.587-0.729,2.184L496.1,23.69z M519.414,41.077h-4.333l-5.053-13.491h-15.394l-5.002,13.491h-4.334
	l15.19-40.671h3.735L519.414,41.077z M562.837,41.077h-22.646V0.403h4.058v36.78h18.588V41.077z M657.832,41.077H633.8V0.403h23
	v3.894h-18.944V18.63h15.546v3.894h-15.546v14.659h19.977V41.077z M684.373,19.907h9.738c2.312,0,4.102-0.727,5.47-2.218
	c1.389-1.512,2.063-3.452,2.063-5.925c0-1.56-0.368-2.952-1.1-4.137c-0.729-1.189-1.703-2.043-2.972-2.613
	c-1.082-0.476-2.804-0.717-5.12-0.717h-8.08V19.907z M708.19,41.077h-4.717l-9.239-17.273h-9.861v17.273h-4.055V0.403h12.243
	c3.295,0,5.712,0.411,7.387,1.259c1.796,0.899,3.239,2.24,4.289,3.986c1.044,1.737,1.571,3.794,1.571,6.115
	c0,2.926-0.779,5.473-2.323,7.566c-1.314,1.792-2.994,3.036-5.004,3.708c0.109,0.186,0.221,0.39,0.335,0.613L708.19,41.077z
	 M606.952,41.079l-18.716-18.478V40.9h-3.979V-0.562h3.979v18.134l16.15-17.166l5.447-0.004L591.437,20.12l20.934,20.955
	L606.952,41.079z"/>
</svg>
